<svg id="visual" viewBox="0 0 960 540" width="960" height="540" xmlns="http://www.w3.org/2000/svg" xmlns:xlink="http://www.w3.org/1999/xlink" version="1.1"><rect x="0" y="0" width="960" height="540" fill="#001220"></rect><path d="M0 403L8 402.5C16 402 32 401 48 403.3C64 405.7 80 411.3 96 414.8C112 418.3 128 419.7 144 422.5C160 425.3 176 429.7 192 424.2C208 418.7 224 403.3 240 396C256 388.7 272 389.3 288 392.7C304 396 320 402 336 409.2C352 416.3 368 424.7 384 424.7C400 424.7 416 416.3 432 415.3C448 414.3 464 420.7 480 417.3C496 414 512 401 528 397.7C544 394.3 560 400.7 576 402.7C592 404.7 608 402.3 624 398.3C640 394.3 656 388.7 672 392C688 395.3 704 407.7 720 417.8C736 428 752 436 768 437.3C784 438.7 800 433.3 816 423.2C832 413 848 398 864 390.7C880 383.3 896 383.7 912 390.8C928 398 944 412 952 419L960 426L960 541L952 541C944 541 928 541 912 541C896 541 880 541 864 541C848 541 832 541 816 541C800 541 784 541 768 541C752 541 736 541 720 541C704 541 688 541 672 541C656 541 640 541 624 541C608 541 592 541 576 541C560 541 544 541 528 541C512 541 496 541 480 541C464 541 448 541 432 541C416 541 400 541 384 541C368 541 352 541 336 541C320 541 304 541 288 541C272 541 256 541 240 541C224 541 208 541 192 541C176 541 160 541 144 541C128 541 112 541 96 541C80 541 64 541 48 541C32 541 16 541 8 541L0 541Z" fill="#2924c7"></path><path d="M0 473L8 465.3C16 457.7 32 442.3 48 436C64 429.7 80 432.3 96 435.2C112 438 128 441 144 444C160 447 176 450 192 452.8C208 455.7 224 458.3 240 459.2C256 460 272 459 288 457.8C304 456.7 320 455.3 336 458C352 460.7 368 467.3 384 467.2C400 467 416 460 432 458.8C448 457.7 464 462.3 480 463.5C496 464.7 512 462.3 528 457.7C544 453 560 446 576 442.7C592 439.3 608 439.7 624 441.7C640 443.7 656 447.3 672 444.3C688 441.3 704 431.7 720 435C736 438.3 752 454.7 768 461.2C784 467.7 800 464.3 816 465C832 465.7 848 470.3 864 468.2C880 466 896 457 912 457C928 457 944 466 952 470.5L960 475L960 541L952 541C944 541 928 541 912 541C896 541 880 541 864 541C848 541 832 541 816 541C800 541 784 541 768 541C752 541 736 541 720 541C704 541 688 541 672 541C656 541 640 541 624 541C608 541 592 541 576 541C560 541 544 541 528 541C512 541 496 541 480 541C464 541 448 541 432 541C416 541 400 541 384 541C368 541 352 541 336 541C320 541 304 541 288 541C272 541 256 541 240 541C224 541 208 541 192 541C176 541 160 541 144 541C128 541 112 541 96 541C80 541 64 541 48 541C32 541 16 541 8 541L0 541Z" fill="#7917a5"></path><path d="M0 475L8 474.8C16 474.7 32 474.3 48 477.8C64 481.3 80 488.7 96 493.7C112 498.7 128 501.3 144 499.7C160 498 176 492 192 490.5C208 489 224 492 240 494.5C256 497 272 499 288 498.8C304 498.7 320 496.3 336 490.5C352 484.7 368 475.3 384 473.5C400 471.7 416 477.3 432 480.3C448 483.3 464 483.7 480 486.2C496 488.7 512 493.3 528 495.8C544 498.3 560 498.7 576 496.5C592 494.3 608 489.7 624 488.7C640 487.7 656 490.3 672 493.2C688 496 704 499 720 494.2C736 489.3 752 476.7 768 471.8C784 467 800 470 816 472.7C832 475.3 848 477.7 864 480.3C880 483 896 486 912 489.2C928 492.3 944 495.7 952 497.3L960 499L960 541L952 541C944 541 928 541 912 541C896 541 880 541 864 541C848 541 832 541 816 541C800 541 784 541 768 541C752 541 736 541 720 541C704 541 688 541 672 541C656 541 640 541 624 541C608 541 592 541 576 541C560 541 544 541 528 541C512 541 496 541 480 541C464 541 448 541 432 541C416 541 400 541 384 541C368 541 352 541 336 541C320 541 304 541 288 541C272 541 256 541 240 541C224 541 208 541 192 541C176 541 160 541 144 541C128 541 112 541 96 541C80 541 64 541 48 541C32 541 16 541 8 541L0 541Z" fill="#922388"></path></svg>